<svg width="1440" height="600" viewBox="0 0 1440 600" fill="none" xmlns="http://www.w3.org/2000/svg">
<g clip-path="url(#clip0_342_17076)">
<rect width="1440" height="600" fill="#19191B"/>
<path d="M219 456.5L271 327L311.5 421L357 311L434 515" stroke="#DDAF21" stroke-width="4" stroke-linecap="round" stroke-linejoin="round"/>
<path d="M530 542L219 454V542H530Z" stroke="white" stroke-width="4" stroke-linecap="round" stroke-linejoin="round"/>
<g clip-path="url(#clip1_342_17076)">
<circle cx="1285" cy="304" r="68" stroke="#FF2121" stroke-width="4"/>
<circle cx="1275.5" cy="303.5" r="34.5" stroke="white" stroke-width="4"/>
<circle cx="1339" cy="260" r="68" stroke="#FF2121" stroke-width="4"/>
<circle cx="1328.5" cy="259.5" r="34.5" stroke="white" stroke-width="4"/>
<circle cx="1339" cy="348" r="68" stroke="#FF2121" stroke-width="4"/>
<circle cx="1328.5" cy="347.5" r="34.5" stroke="white" stroke-width="4"/>
</g>
<path d="M46 -1V216C46 229.255 56.7452 240 70 240H105" stroke="#4D4F59" stroke-width="4"/>
<path d="M28 312V360C28 373.255 38.7452 384 52 384H106" stroke="#4D4F59" stroke-width="4"/>
<path d="M1366 -1V258C1366 271.255 1355.25 282 1342 282H1323" stroke="#FF2121" stroke-width="4"/>
<path d="M1367 600V437C1367 423.745 1356.25 413 1343 413H1324" stroke="#FF2121" stroke-width="4"/>
<path d="M28 600V478C28 464.745 38.7452 454 52 454H105" stroke="white" stroke-width="4"/>
<path d="M28 310V128C28 114.745 38.7452 104 52 104H107" stroke="#4D4F59" stroke-width="4"/>
<path d="M1348 381V130C1348 116.745 1337.25 106 1324 106H1321" stroke="#4D4F59" stroke-width="4"/>
<path d="M1348 381V460C1348 473.255 1337.25 484 1324 484" stroke="white" stroke-width="4"/>
<path d="M70 310V58C70 44.7452 59.2548 34 46 34H7.7486e-07" stroke="white" stroke-width="4"/>
<path d="M70 600L70 386" stroke="#4D4F59" stroke-width="4"/>
<path d="M1283 418L1217 454V466H1322V438L1283 418Z" stroke="white" stroke-width="4"/>
<path d="M1229 466C1229 473.029 1229 476.971 1229 484H1241M1324 484H1317H1241M1241 484V523.5V563H1229V580H1215H1322V563H1317" stroke="white" stroke-width="4"/>
<path d="M1229 563H1323" stroke="white" stroke-width="4"/>
<path d="M1282 484V563" stroke="white" stroke-width="4"/>
<path d="M1302 484V563" stroke="white" stroke-width="4"/>
<path d="M1262 563V484" stroke="white" stroke-width="4"/>
<path d="M534 69.7853H558.174L579.578 50.678L600.982 69.7853H642.783L664.438 50.678L686.094 69.7853H727.391V50.678H770.703L768.185 108L772.214 19H796.891V34.0847H808.978V19H833.656V34.0847H845.743V19H870.924V34.0847H883.011V19H907L909.021 49M913 107L909.021 49M909.021 49H932V68H974L997 49L1019 68H1213V104" stroke="white" stroke-width="4"/>
<path d="M529.134 -6L536.857 106H432.143L439.866 -6H529.134Z" stroke="white" stroke-width="4"/>
<rect x="1320" width="4" height="758" fill="#4D4F59"/>
<rect width="4" height="601" transform="matrix(-1 0 0 1 109 -1)" fill="#4D4F59"/>
<rect x="1211" y="103" width="4" height="497" fill="#4D4F59"/>
<rect x="217" y="108" width="4" height="492" fill="white"/>
<rect x="1320" y="379" width="120" height="4" fill="white"/>
<rect width="105" height="4" transform="matrix(-1 0 0 1 105 310)" fill="white"/>
<rect width="108" height="4" transform="matrix(-1 0 0 1 217 452)" fill="white"/>
<rect x="109" y="104" width="1215" height="4" fill="#4D4F59"/>
<rect x="109" y="216" width="1106" height="4" fill="#4D4F59"/>
<rect x="221" y="540" width="990" height="4" fill="white"/>
<path d="M470 54C470 46.268 476.268 40 484 40C491.732 40 498 46.268 498 54V76H470V54Z" fill="white"/>
<path d="M824 82C824 74.268 830.268 68 838 68C845.732 68 852 74.268 852 82V104H824V82Z" fill="white"/>
<path d="M109 108C138.823 108 163 132.177 163 162V216C133.177 216 109 191.823 109 162V108Z" fill="#FF2121"/>
<path d="M217 108C187.177 108 163 132.177 163 162V216C192.823 216 217 191.823 217 162V108Z" fill="#349E42"/>
<rect x="109" y="62" width="196" height="4" fill="#FF2121"/>
<rect x="189" y="96" width="73" height="4" fill="#FF2121"/>
<path d="M124 0L271 62V66H124V0Z" fill="#FF2121"/>
<rect x="157" y="5" width="7" height="15" fill="#FF2121"/>
<rect x="191" y="20" width="7" height="14" fill="#FF2121"/>
<path d="M124 76H198.601L212.373 88H305" stroke="#FF2121" stroke-width="4" stroke-linejoin="round"/>
<path d="M294 30C294 37.1797 299.82 43 307 43H309C316.18 43 322 37.1797 322 30" stroke="white" stroke-width="4" stroke-linejoin="round"/>
<path d="M322 30C322 37.1797 327.82 43 335 43H337C344.18 43 350 37.1797 350 30" stroke="white" stroke-width="4" stroke-linejoin="round"/>
<path d="M350 30C350 37.1797 355.82 43 363 43H365C372.18 43 378 37.1797 378 30" stroke="white" stroke-width="4" stroke-linejoin="round"/>
<path d="M378 30C378 37.1797 383.82 43 391 43H393C400.18 43 406 37.1797 406 30" stroke="white" stroke-width="4" stroke-linejoin="round"/>
<g clip-path="url(#clip2_342_17076)">
<circle cx="965" cy="118" r="10" fill="#4F7FF2"/>
<circle cx="1066.5" cy="215.5" r="26.5" stroke="#4F7FF2" stroke-width="4"/>
<path d="M862.941 219H891L890.825 207.464C890.367 177.252 865.745 153 835.529 153H832V175.667H835.529C850.669 175.667 862.941 187.939 862.941 203.078V219Z" stroke="#4F7FF2" stroke-width="4" stroke-linejoin="round"/>
<rect x="893" y="180" width="145" height="4" fill="#4F7FF2"/>
<rect x="892" y="184" width="148" height="37" fill="#9FBCFF"/>
<mask id="mask0_342_17076" style="mask-type:alpha" maskUnits="userSpaceOnUse" x="888" y="125" width="154" height="154">
<circle cx="965" cy="202" r="75" stroke="#4F7FF2" stroke-width="4"/>
</mask>
<g mask="url(#mask0_342_17076)">
<path d="M965 127C1006.42 127 1040 160.579 1040 202C1040 243.421 1006.42 277 965 277C923.579 277 890 243.421 890 202C890 160.579 923.579 127 965 127Z" fill="#4F7FF2" stroke="#4F7FF2" stroke-width="4"/>
</g>
</g>
<path d="M162 451.5V439C162 408.624 186.624 384 217 384" stroke="#4D4F59" stroke-width="4" stroke-linejoin="round"/>
<path d="M162 384V374.888C162 341.644 187.824 314.118 221 312" stroke="white" stroke-width="4" stroke-linejoin="round"/>
<path d="M162 312V295C162 264.624 186.624 240 217 240" stroke="#4D4F59" stroke-width="4" stroke-linejoin="round"/>
<path d="M162 452V441C162 409.52 136.48 384 105 384" stroke="#4D4F59" stroke-width="4" stroke-linejoin="round"/>
<path d="M162 384V372.892C162 340.751 137.071 314.12 105 312" stroke="white" stroke-width="4" stroke-linejoin="round"/>
<path d="M162 312V297C162 265.52 136.48 240 105 240" stroke="#4D4F59" stroke-width="4" stroke-linejoin="round"/>
<g clip-path="url(#clip3_342_17076)">
<path d="M996 576.67H783V407L802 399H977L996 407V576.67Z" stroke="#4D4F59" stroke-width="4"/>
<path d="M892 349L932 349V361H892V349Z" fill="#E83103"/>
<path d="M892 347H932V349H892V347Z" fill="white"/>
<path d="M892 335H932V347H892V335Z" fill="#009933"/>
<mask id="path-68-inside-1_342_17076" fill="white">
<path d="M896 361H892V389H896V361Z"/>
</mask>
<path d="M896 361V357H900V361H896ZM892 361H888V357H892V361ZM892 389V393H888V389H892ZM896 389H900V393H896V389ZM896 361V365H892V361V357H896V361ZM892 361H896V389H892H888V361H892ZM892 389V385H896V389V393H892V389ZM896 389H892V361H896H900V389H896Z" fill="#4D4F59" mask="url(#path-68-inside-1_342_17076)"/>
<rect x="880" y="388" width="28" height="11" stroke="#4D4F59" stroke-width="4"/>
<path d="M820 397V541" stroke="#4D4F59" stroke-width="4"/>
<path d="M856 397V541" stroke="#4D4F59" stroke-width="4"/>
<path d="M892 397V541" stroke="#4D4F59" stroke-width="4"/>
<path d="M928 397V541" stroke="#4D4F59" stroke-width="4"/>
<path d="M964 397V541" stroke="#4D4F59" stroke-width="4"/>
<path d="M1211.4 381.018L1233.67 423H1188.33L1210.6 381.018C1210.76 380.72 1210.89 380.476 1211 380.274C1211.11 380.476 1211.24 380.72 1211.4 381.018Z" stroke="#4D4F59" stroke-width="4"/>
<path d="M1239 423V483H1183V423H1239Z" stroke="#4D4F59" stroke-width="4" stroke-linejoin="round"/>
<path d="M1254 483V542H1168V483H1254Z" stroke="#4D4F59" stroke-width="4" stroke-linejoin="round"/>
<path d="M1210.75 506C1218.63 506 1225.02 512.39 1225.02 520.271V542H1196.47V520.271C1196.47 512.39 1202.86 506 1210.75 506Z" stroke="#4D4F59" stroke-width="4"/>
<path d="M1211 431C1220.94 431 1229 439.059 1229 449C1229 458.941 1220.94 467 1211 467C1201.06 467 1193 458.941 1193 449C1193 439.059 1201.06 431 1211 431Z" stroke="#4D4F59" stroke-width="4"/>
<path d="M1211 444V450L1207 454" stroke="#E83103" stroke-width="4" stroke-linecap="round" stroke-linejoin="round"/>
<path d="M1215.17 362.945L1215.64 363.992L1216.78 364.115L1224.47 364.946L1218.74 370.144L1217.89 370.913L1218.12 372.035L1219.71 379.61L1213 375.761L1212 375.19L1211 375.761L1204.29 379.61L1205.88 372.035L1206.11 370.913L1205.26 370.144L1199.53 364.946L1207.22 364.115L1208.36 363.992L1208.83 362.945L1212 355.884L1215.17 362.945Z" stroke="#4D4F59" stroke-width="4"/>
<path d="M1057.73 341H1044.27L1051 287.123L1057.73 341Z" stroke="#4D4F59" stroke-width="4"/>
<path d="M1094 425V453H1008V425H1094Z" stroke="#4D4F59" stroke-width="4" stroke-linejoin="round"/>
<path d="M1086 397V425H1016V397H1086Z" stroke="#4D4F59" stroke-width="4" stroke-linejoin="round"/>
<path d="M1074 369V397H1028V369H1074Z" stroke="#4D4F59" stroke-width="4" stroke-linejoin="round"/>
<path d="M1066 341V369H1036V341H1066Z" stroke="#4D4F59" stroke-width="4" stroke-linejoin="round"/>
<path d="M1106 453V542H996V453H1106Z" stroke="#4D4F59" stroke-width="4" stroke-linejoin="round"/>
<path d="M1050 490C1062.15 490 1072 499.85 1072 512V542H1028V512C1028 499.85 1037.85 490 1050 490Z" stroke="#4D4F59" stroke-width="4"/>
<path d="M1137 280V316" stroke="#FFB1A7" stroke-width="4" stroke-linecap="round" stroke-linejoin="round"/>
<path d="M1124 285L1149.46 310.456" stroke="#FFB1A7" stroke-width="4" stroke-linecap="round" stroke-linejoin="round"/>
<path d="M1149.46 285L1124 310.456" stroke="#FFB1A7" stroke-width="4" stroke-linecap="round" stroke-linejoin="round"/>
<path d="M1119 298H1155" stroke="#FFB1A7" stroke-width="4" stroke-linecap="round" stroke-linejoin="round"/>
<rect x="1106" y="528" width="62" height="14" stroke="#4D4F59" stroke-width="4"/>
<rect x="1113" y="516" width="48" height="12" stroke="#4D4F59" stroke-width="4"/>
<rect x="2" y="-2" width="48" height="12" transform="matrix(1 0 0 -1 1111 446)" stroke="#4D4F59" stroke-width="4"/>
<rect x="1121" y="504" width="32" height="12" stroke="#4D4F59" stroke-width="4"/>
<rect x="2" y="-2" width="32" height="12" transform="matrix(1 0 0 -1 1119 458)" stroke="#4D4F59" stroke-width="4"/>
<rect x="1127" y="460" width="20" height="44" stroke="#4D4F59" stroke-width="4"/>
<circle cx="1137" cy="418" r="18" stroke="#4D4F59" stroke-width="4"/>
</g>
<path d="M1266 140V176" stroke="#A7C1FF" stroke-width="4" stroke-linecap="round" stroke-linejoin="round"/>
<path d="M1253 145L1278.46 170.456" stroke="#A7C1FF" stroke-width="4" stroke-linecap="round" stroke-linejoin="round"/>
<path d="M1278.46 145L1253 170.456" stroke="#A7C1FF" stroke-width="4" stroke-linecap="round" stroke-linejoin="round"/>
<path d="M1248 158H1284" stroke="#A7C1FF" stroke-width="4" stroke-linecap="round" stroke-linejoin="round"/>
<g clip-path="url(#clip4_342_17076)">
<rect x="487" y="132" width="8" height="84" fill="#C34C2E"/>
<rect x="321" y="156" width="60" height="60" fill="#D75838"/>
<rect x="601" y="128" width="60" height="88" fill="#D75838"/>
<rect x="661" y="108" width="60" height="108" fill="#D75838"/>
<rect x="381" y="146" width="80" height="70" fill="#D75838"/>
<rect x="521" y="146" width="80" height="70" fill="#D75838"/>
<rect x="461" y="155" width="60" height="20" fill="#D75838"/>
<path d="M329 156H341V172L329 182V156Z" fill="#C34C2E"/>
<path d="M609 128H621V144L609 154V128Z" fill="#C34C2E"/>
<path d="M669 108H681V124L669 134V108Z" fill="#C34C2E"/>
<path d="M389 146H401V162L389 172V146Z" fill="#C34C2E"/>
<path d="M529 146H541V162L529 172V146Z" fill="#C34C2E"/>
<path d="M353 156H361V168L353 178V156Z" fill="#C34C2E"/>
<path d="M633 128H641V140L633 150V128Z" fill="#C34C2E"/>
<path d="M693 108H701V120L693 130V108Z" fill="#C34C2E"/>
<path d="M413 146H421V158L413 168V146Z" fill="#C34C2E"/>
<path d="M553 146H561V158L553 168V146Z" fill="#C34C2E"/>
<path d="M433 146H441V158L433 168V146Z" fill="#C34C2E"/>
<path d="M573 146H581V158L573 168V146Z" fill="#C34C2E"/>
<path d="M361 156H373V183L361 193V156Z" fill="#C34C2E"/>
<path d="M641 128H653V155L641 165V128Z" fill="#C34C2E"/>
<path d="M701 108H713V135L701 145V108Z" fill="#C34C2E"/>
<path d="M421 146H433V173L421 183V146Z" fill="#C34C2E"/>
<path d="M561 146H573V173L561 183V146Z" fill="#C34C2E"/>
<path d="M342 190H354V197L342 207V190Z" fill="#C34C2E"/>
<path d="M622 162H634V169L622 179V162Z" fill="#C34C2E"/>
<path d="M682 142H694V149L682 159V142Z" fill="#C34C2E"/>
<path d="M402 180H414V187L402 197V180Z" fill="#C34C2E"/>
<path d="M542 180H554V187L542 197V180Z" fill="#C34C2E"/>
<path d="M441 146H453V153L441 163V146Z" fill="#C34C2E"/>
<path d="M581 146H593V153L581 163V146Z" fill="#C34C2E"/>
<path d="M341 156H353V162L341 172V156Z" fill="#C34C2E"/>
<path d="M621 128H633V134L621 144V128Z" fill="#C34C2E"/>
<path d="M681 108H693V114L681 124V108Z" fill="#C34C2E"/>
<path d="M401 146H413V152L401 162V146Z" fill="#C34C2E"/>
<path d="M541 146H553V152L541 162V146Z" fill="#C34C2E"/>
<path d="M486.5 121L493.861 133.75H479.139L486.5 121Z" fill="#E9D183"/>
<path d="M494.5 137L487.139 124.25H501.861L494.5 137Z" fill="#E9D183"/>
</g>
<g clip-path="url(#clip5_342_17076)">
<circle cx="1161.5" cy="131.5" r="21.5" fill="#83A164"/>
<g filter="url(#filter0_n_342_17076)">
<circle cx="1161.5" cy="131.5" r="21.5" fill="#83A164"/>
</g>
<path fill-rule="evenodd" clip-rule="evenodd" d="M1233.87 239C1236.31 239 1238.75 238.51 1240.92 237.387C1262.94 225.998 1278 203.007 1278 176.5C1278 138.668 1247.33 108 1209.5 108C1171.67 108 1141 138.668 1141 176.5C1141 202.517 1155.5 225.146 1176.87 236.743C1179.81 238.342 1183.16 239 1186.51 239C1190.44 239 1194.31 238.021 1197.77 236.15L1211 229L1225.66 236.922C1228.18 238.286 1231 239 1233.87 239Z" fill="#83A164"/>
<ellipse cx="10" cy="4" rx="10" ry="4" transform="matrix(-0.961262 -0.275637 -0.275637 0.961262 1200.43 128.514)" fill="#354518"/>
<ellipse cx="8" cy="4" rx="8" ry="4" transform="matrix(0.961262 0.275637 0.275637 -0.961262 1160 208.691)" fill="#354518"/>
<ellipse cx="6.5" cy="3" rx="6.5" ry="3" transform="matrix(0.766044 0.642788 0.642788 -0.766044 1189.59 143.119)" fill="#416129"/>
<ellipse cx="6.5" cy="3" rx="6.5" ry="3" transform="matrix(0.766044 0.642788 0.642788 -0.766044 1153 191.596)" fill="#416129"/>
<path d="M1181 156C1175.12 156 1171 159.908 1171 164C1171 168.092 1175.12 172 1181 172C1186.88 172 1191 168.092 1191 164C1191 159.908 1186.88 156 1181 156Z" stroke="#416129" stroke-width="4"/>
<path d="M1166 157.5C1175.66 149.725 1190.12 154.436 1193.35 166.408L1198.5 185.5" stroke="#354518" stroke-width="4" stroke-linecap="round"/>
<path d="M1211 216L1219.42 204.342C1221.33 201.697 1219.44 198 1216.18 198H1205.82C1202.56 198 1200.67 201.697 1202.58 204.342L1211 216Z" fill="#416129"/>
<rect x="1208" y="210" width="6" height="15" fill="#416129"/>
<ellipse cx="1186" cy="164.5" rx="5" ry="4.5" fill="#354518"/>
</g>
<path d="M157 522V514C157 501.85 166.85 492 179 492C191.15 492 201 482.15 201 470V456" stroke="white" stroke-width="4" stroke-linejoin="round"/>
<rect x="127" y="522" width="60" height="76" rx="30" stroke="white" stroke-width="4"/>
<rect x="155" y="537" width="4" height="8" fill="white"/>
<rect x="141" y="549" width="32" height="4" fill="white"/>
<path d="M1440 381H1406C1392.75 381 1382 370.255 1382 357V58C1382 44.7452 1371.25 34 1358 34H1324" stroke="white" stroke-width="4"/>
<path d="M224 218L1051 298.5" stroke="#4D4F59" stroke-width="4"/>
<path d="M410 243L416 255L408 268" stroke="#4D4F59" stroke-width="4"/>
<rect x="393" y="237" width="32" height="12" fill="#4D4F59"/>
<rect x="398" y="266" width="20" height="4" fill="#4D4F59"/>
<path d="M390.143 270H425.857L433 288L425.857 306H390.143L383 288L390.143 270Z" fill="#4D4F59"/>
<path d="M425.857 270H390.143L383 289H433L425.857 270Z" fill="#676973"/>
<rect width="510" height="168" transform="translate(326 330)" fill="#F9F3DE"/>
<rect x="350" y="454" width="60" height="24" fill="#242424"/>
<rect x="418" y="454" width="24" height="24" fill="#242424"/>
<rect x="454" y="454" width="24" height="24" fill="#242424"/>
<rect x="500" y="454" width="24" height="24" fill="#242424"/>
<rect x="548" y="454" width="24" height="24" fill="#242424"/>
<rect x="584" y="454" width="24" height="24" fill="#242424"/>
<rect x="684" y="454" width="24" height="24" fill="#242424"/>
<rect x="752" y="454" width="60" height="24" fill="#242424"/>
<rect x="616" y="454" width="60" height="24" fill="#242424"/>
<rect x="362" y="362" width="36" height="72" stroke="#FF2121" stroke-width="24"/>
<path d="M442 380.856L454 350H478L460 398L478 446H454L442 415.143V446H418V350H442V380.856Z" fill="#FF2121"/>
<path d="M542 374H524V446H500V374H482V350H542V374Z" fill="#FF2121"/>
<path d="M608 446H584V410H582L572 446H548L558 410H552V350H608V446ZM576 386H584V374H576V386Z" fill="#FF2121"/>
<path d="M706 374V386H720V374H706ZM744 410H706V446H684V350H744V410Z" fill="#FF2121"/>
<path d="M638 410V422H652V410H638ZM676 446H616V350H676V374H638V386H676V446Z" fill="#FF2121"/>
<path d="M774 410V422H788V410H774ZM812 446H752V350H774V386H812V446Z" fill="#FF2121"/>
<path d="M1301.15 48.2857L1313.79 106H1222.21L1234.85 48.2857H1301.15Z" stroke="#4D4F59" stroke-width="4"/>
<path d="M1322 2V26.1426C1322 38.2928 1312.15 48.1426 1300 48.1426H1236C1223.85 48.1426 1214 38.2928 1214 26.1426V2H1322Z" stroke="#4D4F59" stroke-width="4"/>
<rect x="1216.36" y="19.7858" width="103.276" height="2.85714" fill="#4D4F59" stroke="#4D4F59"/>
<rect x="1216.36" y="29.4286" width="104.241" height="2.85714" fill="#4D4F59" stroke="#4D4F59"/>
<path d="M1225.52 8.21429C1226.12 8.21429 1226.71 8.54083 1227.17 9.14398C1227.62 9.74742 1227.91 10.6045 1227.91 11.5717C1227.91 12.5388 1227.62 13.3951 1227.17 13.9985C1226.71 14.6017 1226.12 14.9282 1225.52 14.9282C1224.91 14.9281 1224.32 14.6017 1223.87 13.9985C1223.42 13.3951 1223.12 12.5388 1223.12 11.5717C1223.12 10.6045 1223.42 9.74742 1223.87 9.14398C1224.32 8.54081 1224.91 8.21432 1225.52 8.21429Z" fill="#4D4F59" stroke="#4D4F59"/>
<path d="M1310.48 8.21429C1311.09 8.21429 1311.68 8.54083 1312.13 9.14398C1312.58 9.74742 1312.88 10.6045 1312.88 11.5717C1312.88 12.5388 1312.58 13.3951 1312.13 13.9985C1311.68 14.6017 1311.09 14.9282 1310.48 14.9282C1309.88 14.9281 1309.29 14.6017 1308.83 13.9985C1308.38 13.3951 1308.09 12.5388 1308.09 11.5717C1308.09 10.6045 1308.38 9.74742 1308.83 9.14398C1309.29 8.54081 1309.88 8.21432 1310.48 8.21429Z" fill="#4D4F59" stroke="#4D4F59"/>
<path d="M1253.52 8.21429C1255.37 8.21442 1256.88 9.7183 1256.88 11.5717C1256.88 13.425 1255.37 14.928 1253.52 14.9282C1251.66 14.9282 1250.16 13.4251 1250.16 11.5717C1250.16 9.71822 1251.66 8.21429 1253.52 8.21429Z" fill="#4D4F59" stroke="#4D4F59"/>
<path d="M1282.48 8.21429C1284.34 8.21442 1285.85 9.7183 1285.85 11.5717C1285.85 13.425 1284.34 14.928 1282.48 14.9282C1280.63 14.9282 1279.12 13.4251 1279.12 11.5717C1279.12 9.71822 1280.63 8.21429 1282.48 8.21429Z" fill="#4D4F59" stroke="#4D4F59"/>
<rect x="1238.55" y="10.1256" width="0.965517" height="2.89163" fill="#4D4F59" stroke="#4D4F59" stroke-width="0.965517"/>
<rect x="1267.52" y="10.1256" width="0.965517" height="2.89163" fill="#4D4F59" stroke="#4D4F59" stroke-width="0.965517"/>
<rect x="1243.38" y="50.6256" width="0.965517" height="2.89163" fill="#4D4F59" stroke="#4D4F59" stroke-width="0.965517"/>
<rect x="1253.03" y="50.6256" width="0.965517" height="2.89163" fill="#4D4F59" stroke="#4D4F59" stroke-width="0.965517"/>
<rect x="1262.69" y="50.6256" width="0.965517" height="2.89163" fill="#4D4F59" stroke="#4D4F59" stroke-width="0.965517"/>
<rect x="1272.34" y="50.6256" width="0.965517" height="2.89163" fill="#4D4F59" stroke="#4D4F59" stroke-width="0.965517"/>
<rect x="1282" y="50.6256" width="0.965517" height="2.89163" fill="#4D4F59" stroke="#4D4F59" stroke-width="0.965517"/>
<rect x="1291.66" y="50.6256" width="0.965517" height="2.89163" fill="#4D4F59" stroke="#4D4F59" stroke-width="0.965517"/>
<rect x="1296.48" y="10.1256" width="0.965517" height="2.89163" fill="#4D4F59" stroke="#4D4F59" stroke-width="0.965517"/>
<path d="M1249.66 71.4286C1251.29 71.4287 1252.64 72.7139 1252.73 74.3505L1254.31 106H1245L1246.58 74.3505C1246.67 72.7138 1248.02 71.4286 1249.66 71.4286Z" stroke="#4D4F59" stroke-width="4"/>
<path d="M1286.35 71.4286C1287.98 71.4287 1289.33 72.7139 1289.42 74.3505L1291 106H1281.69L1283.27 74.3505C1283.36 72.7138 1284.71 71.4286 1286.35 71.4286Z" stroke="#4D4F59" stroke-width="4"/>
</g>
<defs>
<filter id="filter0_n_342_17076" x="1140" y="110" width="43" height="43" filterUnits="userSpaceOnUse" color-interpolation-filters="sRGB">
<feFlood flood-opacity="0" result="BackgroundImageFix"/>
<feBlend mode="normal" in="SourceGraphic" in2="BackgroundImageFix" result="shape"/>
<feTurbulence type="fractalNoise" baseFrequency="2 2" stitchTiles="stitch" numOctaves="3" result="noise" seed="731" />
<feColorMatrix in="noise" type="luminanceToAlpha" result="alphaNoise" />
<feComponentTransfer in="alphaNoise" result="coloredNoise1">
<feFuncA type="discrete" tableValues="1 1 1 1 1 1 1 1 1 1 1 1 1 1 1 1 1 1 1 1 1 1 1 1 1 1 1 1 1 1 1 1 1 1 1 1 1 1 1 1 1 1 1 1 1 1 1 1 1 1 1 0 0 0 0 0 0 0 0 0 0 0 0 0 0 0 0 0 0 0 0 0 0 0 0 0 0 0 0 0 0 0 0 0 0 0 0 0 0 0 0 0 0 0 0 0 0 0 0 0 "/>
</feComponentTransfer>
<feComposite operator="in" in2="shape" in="coloredNoise1" result="noise1Clipped" />
<feFlood flood-color="rgba(0, 0, 0, 0.25)" result="color1Flood" />
<feComposite operator="in" in2="noise1Clipped" in="color1Flood" result="color1" />
<feMerge result="effect1_noise_342_17076">
<feMergeNode in="shape" />
<feMergeNode in="color1" />
</feMerge>
</filter>
<clipPath id="clip0_342_17076">
<rect width="1440" height="600" fill="white"/>
</clipPath>
<clipPath id="clip1_342_17076">
<rect width="105" height="228" fill="white" transform="translate(1215 190)"/>
</clipPath>
<clipPath id="clip2_342_17076">
<rect width="265" height="108" fill="white" transform="translate(830 108)"/>
</clipPath>
<clipPath id="clip3_342_17076">
<rect width="480" height="290" fill="white" transform="translate(731 250)"/>
</clipPath>
<clipPath id="clip4_342_17076">
<rect width="400" height="108" fill="white" transform="translate(321 108)"/>
</clipPath>
<clipPath id="clip5_342_17076">
<rect width="108" height="116" fill="white" transform="matrix(0 -1 1 0 1095 216)"/>
</clipPath>
</defs>
</svg>
