<svg width="120" height="120" viewBox="0 0 120 120" fill="none" xmlns="http://www.w3.org/2000/svg">
<rect width="120" height="120" fill="black"/>
<path d="M70.9906 26.4167C72.5078 23.6425 76.4922 23.6425 78.0094 26.4167L80.7048 31.345C82.5401 34.7008 85.2992 37.4599 88.655 39.2952L93.5833 41.9906C96.3575 43.5078 96.3575 47.4922 93.5833 49.0094L88.655 51.7048C85.2992 53.5401 82.5401 56.2992 80.7048 59.655L78.0094 64.5833C76.4922 67.3575 72.5078 67.3575 70.9906 64.5833L68.2952 59.655C66.4599 56.2992 63.7008 53.5401 60.345 51.7048L55.4167 49.0094C52.6425 47.4922 52.6425 43.5078 55.4167 41.9906L60.345 39.2952C63.7008 37.4599 66.4599 34.7008 68.2952 31.345L70.9906 26.4167Z" fill="#3A93FF"/>
<path d="M70.9906 26.4167C72.5078 23.6425 76.4922 23.6425 78.0094 26.4167L80.7048 31.345C82.5401 34.7008 85.2992 37.4599 88.655 39.2952L93.5833 41.9906C96.3575 43.5078 96.3575 47.4922 93.5833 49.0094L88.655 51.7048C85.2992 53.5401 82.5401 56.2992 80.7048 59.655L78.0094 64.5833C76.4922 67.3575 72.5078 67.3575 70.9906 64.5833L68.2952 59.655C66.4599 56.2992 63.7008 53.5401 60.345 51.7048L55.4167 49.0094C52.6425 47.4922 52.6425 43.5078 55.4167 41.9906L60.345 39.2952C63.7008 37.4599 66.4599 34.7008 68.2952 31.345L70.9906 26.4167Z" fill="url(#paint0_linear_377_117153)"/>
<defs>
<linearGradient id="paint0_linear_377_117153" x1="49" y1="45.5" x2="100" y2="45.5" gradientUnits="userSpaceOnUse">
<stop stop-color="#0095FF"/>
<stop offset="0.5" stop-color="#ADD2FF"/>
<stop offset="1" stop-color="#ADFF2A"/>
</linearGradient>
</defs>
</svg>
