<svg width="32" height="32" viewBox="0 0 32 32" fill="none" xmlns="http://www.w3.org/2000/svg">
<path d="M16.7721 27.1063C15.9233 27.1063 15.054 26.9017 14.0211 25.9435L9.77693 22.1857C9.58261 22.1965 9.39853 22.1965 9.22467 22.1965C6.0441 22.1965 3.81464 21.249 2.24992 18.568C0.940876 18.5895 0 17.8035 0 16.5868C0 15.4886 0.838607 14.7456 1.96357 14.7779C3.36465 10.4388 6.18728 8.48991 9.55193 8.48991C13.0904 8.48991 15.2892 10.2342 18.5823 12.3876C19.7073 13.0336 20.6788 13.6904 21.5583 13.6904C22.1924 13.6904 22.5503 13.4213 23.0003 13.0013L17.2732 9.0821C15.9744 8.18843 14.2665 6.96097 14.2665 6.14266C14.2665 4.88291 16.8744 4 18.3982 4C20.28 4 22.2538 4.97981 23.6855 7.19785L26.1502 10.9771C29.7501 10.8264 32 13.7873 32 17.2328C32 20.1292 30.6705 21.0013 28.2569 21.0013C26.2729 21.0013 24.9946 20.2261 23.798 19.4078C23.0105 19.817 22.2742 20.2153 21.6197 20.5922C21.0163 20.4415 20.4231 20.4092 19.8197 20.4092C19.0527 20.4092 18.3062 20.4738 17.621 20.6137L16.9358 18.9879C15.3915 15.3594 12.7939 13.6366 9.60307 13.6366C8.55992 13.6366 7.60882 13.8412 7.60882 14.6595C7.60882 15.1655 7.92585 15.4347 8.44743 15.4347H9.69511C12.1393 15.4347 14.2768 16.8345 15.4631 19.5155L16.6596 22.2826C17.6107 22.0888 18.2857 21.7981 19.922 21.7981C23.0719 21.7981 24.79 23.3594 24.79 25.2221C24.79 26.428 23.9105 27.1063 22.4072 27.1063C21.3742 27.1063 20.9549 26.7295 19.5743 26.7295C18.2244 26.7295 17.488 27.1063 16.7721 27.1063ZM27.449 16.8668C28.0115 16.8668 28.4717 16.3499 28.4717 15.7362C28.4717 15.1655 28.0217 14.681 27.4593 14.681C26.8968 14.681 26.4366 15.1978 26.4366 15.79C26.4366 16.3715 26.8865 16.8668 27.449 16.8668ZM8.73378 28C6.54522 28 5.12368 27.0417 5.12368 25.6205C5.12368 24.6729 5.82934 24.0377 6.9543 24.0377C7.81336 24.0377 8.73378 24.21 9.21445 24.21C9.40876 24.21 9.57239 24.1992 9.71556 24.1884L12.8245 26.9448C11.8223 27.6447 10.6053 28 8.73378 28Z" fill="white"/>
</svg>
