<svg width="32" height="32" viewBox="0 0 32 32" fill="none" xmlns="http://www.w3.org/2000/svg">
<path d="M11.4845 15.0202C9.0404 15.0202 6.81333 14.0706 5.12415 12.1715C6.8322 10.0255 8.82336 9 11.56 9C14.2778 9.0095 16.1651 9.94955 17.9204 12.105C16.2218 14.0326 14.0324 15.0107 11.4845 15.0202ZM23.2521 20.0718C22.7142 18.7994 22.1103 17.4036 21.6385 16.397C22.2518 16.0077 22.8086 15.4095 23.1578 14.1941C23.7523 12.0386 25.1961 10.5383 27.4987 10.5383C30.1976 10.5383 32 12.8172 32 16.2166C32 17.7169 30.3297 18.676 27.6685 18.676C25.885 18.676 24.6865 19.4546 23.2521 20.0718ZM17.826 21.3632C16.2029 19.9769 15.1554 17.8499 14.9667 15.8273C16.2406 15.343 17.6561 14.403 18.7508 13.2445C19.7228 14.8018 21.3648 18.9228 22.1292 20.4706C21.78 20.6605 21.1289 20.7745 20.4872 20.8125C19.5152 20.9074 18.5998 21.1068 17.826 21.3632ZM5.22796 21.4107C4.49189 21.1258 3.76526 20.9074 2.89708 20.9074H1.83073C0.660572 20.9074 0 20.4991 0 19.7774C0 19.2647 0.226482 18.9703 0.679446 18.524C1.29283 17.9163 2.17989 17.1187 2.97257 15.5614C3.38779 14.7543 3.83132 14.0231 4.25597 13.368C5.35063 14.5169 6.76615 15.3715 8.13447 15.8653C7.91743 17.8404 6.78502 20.1098 5.22796 21.4107ZM27.744 15.3525C28.263 15.3525 28.7066 14.9062 28.7066 14.3745C28.7066 13.8427 28.263 13.4059 27.744 13.4059C27.2061 13.4059 26.772 13.8427 26.772 14.3745C26.772 14.9062 27.2061 15.3525 27.744 15.3525ZM11.5128 23.4997C9.41787 23.4997 7.87968 22.5501 6.59628 21.9994C8.24771 20.5086 9.26688 18.3721 9.42731 16.2451C10.0973 16.397 10.7956 16.4825 11.5034 16.473C12.23 16.473 12.9472 16.397 13.6644 16.2261C13.7965 18.4196 14.8346 20.5371 16.5615 21.9709C15.2875 22.5976 13.6927 23.4997 11.5128 23.4997ZM20.6382 25C18.9584 25 17.1277 24.3638 16.2218 23.3763C17.2315 22.7591 18.9112 22.0469 20.1474 21.8475C20.6476 21.9045 21.0439 21.9519 21.5158 22.0089C22.2802 22.1608 23.0257 22.5691 23.0257 23.4237C23.0257 24.4113 22.0442 25 20.6382 25ZM2.69891 24.9905C1.31171 24.9905 0.358596 24.4018 0.358596 23.4142C0.358596 22.7116 0.971985 22.3602 1.60425 22.2083C2.17045 22.0754 2.64229 22.0089 3.14244 21.857C4.40696 22.1323 5.81303 22.778 6.99263 23.4237C6.03952 24.3543 4.36921 24.9905 2.69891 24.9905Z" fill="white"/>
</svg>
