<svg width="24" height="24" viewBox="0 0 24 24" fill="none" xmlns="http://www.w3.org/2000/svg">
<path d="M11.375 24C11.1458 22.6458 10.5417 21.1875 9.5625 19.625C8.58333 18.0417 7.1875 16.5729 5.375 15.2188C3.58333 13.8646 1.79167 13 0 12.625V11.3125C1.77083 10.8958 3.46875 10.125 5.09375 9C6.73958 7.85417 8.11458 6.47917 9.21875 4.875C10.3437 3.22917 11.0625 1.60417 11.375 0H12.6875C12.875 1.04167 13.25 2.11458 13.8125 3.21875C14.375 4.30208 15.0937 5.34375 15.9687 6.34375C16.8646 7.32292 17.8646 8.20833 18.9688 9C20.6146 10.1667 22.2917 10.9375 24 11.3125V12.625C22.8542 12.8542 21.6667 13.3229 20.4375 14.0313C19.2292 14.7396 18.1042 15.5833 17.0625 16.5625C16.0208 17.5208 15.1667 18.5313 14.5 19.5938C13.5208 21.1563 12.9167 22.625 12.6875 24H11.375Z" fill="#E12708"/>
</svg>
